PathFileType	4	(X/Y/Z)	S01_0006_Gait_markers.trc
DataRate	CameraRate	NumFrames	NumMarkers	Units	OrigDataRate	OrigDataStartFrame	OrigNumFrames
250.000000	250.000000	4	54	mm	250.000000	235	314
Frame#	Time	HEAD_ANT			R_HEAD			L_HEAD			C7			R_BACK			L_BACK			STERNUM			R_ACROMION			R_HUM_PROX			R_HUM_ANT			R_HUM_POST			R_ELBOW_LAT			R_ELBOW_MED			R_FOREARM			R_WIRST_LAT			R_WRITS_MED			R_HAND			L_ACROMION			L_HUM_PROX			L_HUM_ANT			L_HUM_POST			L_ELBOW_LAT			L_ELBOW_MED			L_FOREARM			L_WRIST_LAT			L_WIRST_MED			L_HAND			R_ILIAC			SACRUM			L_ILIAC			R_GTROCH			R_THIGH__1			R_THIGH_2			R_THIGH_3			R_THIGH_4			R_SHANK_1			R_SHANK_2			R_SHANK_3			R_SHANK_4			R_HEEL			R_FOOT_LAT			R_FOOT_MED			L_GTROCH			L_THIGH_1			L_THIGH_2			L_THIGH_3			L_THIGH_4			L_SHANK_1			L_SHANK_2			L_SHANK_3			L_SHANK_4			L_HEEL			L_FOOT_LAT			L_FOOT_MED			
		X1	Y1	Z1	X2	Y2	Z2	X3	Y3	Z3	X4	Y4	Z4	X5	Y5	Z5	X6	Y6	Z6	X7	Y7	Z7	X8	Y8	Z8	X9	Y9	Z9	X10	Y10	Z10	X11	Y11	Z11	X12	Y12	Z12	X13	Y13	Z13	X14	Y14	Z14	X15	Y15	Z15	X16	Y16	Z16	X17	Y17	Z17	X18	Y18	Z18	X19	Y19	Z19	X20	Y20	Z20	X21	Y21	Z21	X22	Y22	Z22	X23	Y23	Z23	X24	Y24	Z24	X25	Y25	Z25	X26	Y26	Z26	X27	Y27	Z27	X28	Y28	Z28	X29	Y29	Z29	X30	Y30	Z30	X31	Y31	Z31	X32	Y32	Z32	X33	Y33	Z33	X34	Y34	Z34	X35	Y35	Z35	X36	Y36	Z36	X37	Y37	Z37	X38	Y38	Z38	X39	Y39	Z39	X40	Y40	Z40	X41	Y41	Z41	X42	Y42	Z42	X43	Y43	Z43	X44	Y44	Z44	X45	Y45	Z45	X46	Y46	Z46	X47	Y47	Z47	X48	Y48	Z48	X49	Y49	Z49	X50	Y50	Z50	X51	Y51	Z51	X52	Y52	Z52	X53	Y53	Z53	X54	Y54	Z54	

236	0.9400000000000001	1564.354858398438	1752.7666015625	-353.8406066894527	1501.300537109375	1697.003295898438	-283.4400939941402	1506.276611328125	1711.995727539062	-429.372161865234	1362.153442382812	1537.070556640625	-373.3863525390622	1283.049682617188	1342.503173828125	-306.5945739746091	1289.888916015625	1342.605224609375	-446.7209167480466	1539.102416992188	1373.571655273438	-367.0461120605466	1431.937622070312	1489.270751953125	-198.3846588134762	1385.405883789062	1332.036376953125	-105.9667205810544	1444.1005859375	1245.3671875	-99.7257003784177	1322.755859375	1250.207885742188	-96.36401367187472	1369.953002929688	1142.066040039062	-84.70699310302709	1347.291137695312	1137.8349609375	-166.0021209716794	1476.130615234375	962.6492919921875	-83.44955444335916	1519.583984375	900.4654541015625	-120.8455657958982	1450.427124023438	871.5159301757812	-88.84265899658183	1524.313720703125	812.2107543945312	-66.0029983520506	1444.433837890625	1490.28662109375	-536.7321777343747	1429.878295898438	1322.360473632813	-631.8764648437497	1494.168334960938	1243.410278320313	-625.1916503906248	1374.872314453125	1242.802978515625	-660.162658691406	1436.5498046875	1140.23291015625	-661.0399780273435	1380.831665039062	1132.623046875	-607.187561035156	1555.331787109375	976.2161865234376	-624.395812988281	1586.779418945312	921.2738037109376	-566.977355957031	1550.537353515625	891.9698486328126	-630.6467285156248	1631.112426757812	844.9630737304689	-607.3186035156248	1436.834594726562	1091.120727539062	-193.4978027343747	1305.59912109375	1062.40283203125	-359.4147949218748	1425.62060546875	1079.663208007813	-537.4008789062498	1401.673461914062	939.2766723632812	-171.3919067382811	1513.525390625	668.486328125	-190.0480804443358	1564.6611328125	697.3002319335938	-188.6635284423827	1590.813110351562	597.2484741210938	-219.915557861328	1527.845581054688	589.1908569335938	-209.5619964599608	1491.665649414062	383.3381958007813	-196.9430999755859	1540.724365234375	351.3234863281251	-211.8256835937499	1518.855712890625	268.4967041015626	-224.9280548095703	1458.59521484375	287.9618225097657	-212.3762512207031	1379.238403320312	81.17176055908209	-287.4837951660156	1534.0322265625	37.34031295776371	-199.9140625	1589.665283203125	45.06740188598639	-286.7847595214844	1384.264404296875	967.0488891601564	-538.2301025390623	1441.571655273438	672.8370971679689	-513.0964965820311	1391.538696289062	698.8502197265626	-529.3137817382811	1366.042114257812	600.4022216796876	-492.2526550292968	1429.420288085938	595.3136596679689	-485.6083679199218	1352.203125	332.3840942382814	-467.6910400390624	1292.787109375	319.6851501464845	-467.6488647460937	1277.793823242188	235.8085937500001	-447.5114746093749	1341.723876953125	232.9414062500001	-441.2008361816406	1214.981323242188	57.92760467529305	-367.6378479003906	1386.694580078125	19.48019790649424	-442.4400329589844	1427.107421875	29.62474060058601	-337.0872802734375	
237	0.9440000000000001	1569.766235351562	1752.45068359375	-353.796234130859	1506.771850585938	1696.533569335938	-283.4849243164059	1511.70703125	1711.567016601562	-429.2512817382809	1367.283935546875	1537.102783203125	-372.8375854492184	1288.471435546875	1342.206420898438	-306.9290771484372	1295.348754882812	1342.243041992188	-447.0111999511716	1544.047973632812	1373.172973632812	-366.7184753417966	1437.227416992188	1488.797119140625	-198.3724975585934	1390.328491210938	1331.587280273438	-106.2886962890622	1449.070556640625	1244.77734375	-99.84297180175754	1327.5595703125	1249.888671875	-96.8997039794919	1374.695434570312	1141.656982421875	-84.83897399902318	1352.194213867188	1137.344482421875	-166.3809661865232	1481.1142578125	962.0615234375	-83.44698333740213	1524.889892578125	900.166748046875	-120.5380706787107	1455.534301757812	871.0753173828125	-89.26529693603496	1529.39404296875	812.0521240234375	-65.74867248535138	1450.039306640625	1489.96142578125	-536.7939453124997	1435.636108398438	1322.08544921875	-631.9394531249997	1500.178100585938	1243.419555664063	-625.0640869140623	1381.122802734375	1242.589477539063	-660.5678100585935	1442.869140625	1139.9736328125	-661.3016967773435	1386.922241210938	1132.272827148438	-607.8087768554685	1562.097900390625	976.4419555664064	-624.1859741210935	1593.540771484375	921.6390991210939	-566.7218017578123	1557.729125976562	892.2307128906251	-630.410461425781	1638.45751953125	845.6362304687501	-606.5619506835935	1442.148315429688	1090.6884765625	-193.5242919921872	1310.911499023438	1061.983764648438	-359.533508300781	1430.794067382812	1079.16552734375	-537.5150756835935	1406.975219726562	938.8758544921875	-171.6300659179686	1519.503051757812	668.2885131835938	-190.9299163818358	1570.552490234375	697.3512573242188	-189.268096923828	1597.091918945312	597.4729614257812	-220.6087036132811	1534.1533203125	589.2598876953125	-209.9911346435545	1501.061645507812	381.9032592773438	-197.9786529541015	1551.0751953125	351.0527038574219	-212.6255340576171	1531.121948242188	267.9481201171876	-225.5121002197265	1470.438842773438	285.9488830566407	-213.5449829101562	1395.609619140625	77.46211242675788	-288.4431762695312	1551.728759765625	36.67935562133793	-200.7154083251953	1606.870727539062	45.66496276855475	-287.4949035644531	1388.788818359375	966.7305908203126	-538.2564697265623	1444.132446289062	672.2662353515626	-513.7792968749999	1393.453857421875	698.8371582031251	-528.5782470703124	1367.382446289062	599.9443969726564	-491.5885314941405	1431.37060546875	596.0354003906251	-486.3340454101561	1352.64306640625	332.6451110839845	-467.8074951171874	1293.157104492188	320.1758422851564	-467.5879211425781	1277.968383789062	236.265365600586	-447.3820190429687	1342.026489257812	233.3140869140626	-441.4819641113281	1215.13818359375	58.39286804199227	-367.5563659667969	1386.53125	19.54742050170908	-442.4407348632812	1426.3994140625	29.48081779479988	-337.6393737792969	
238	0.9480000000000001	1575.243896484375	1751.980346679688	-353.8546752929684	1512.2919921875	1696.021850585938	-283.3966674804684	1517.073364257812	1711.048828125	-429.2386474609371	1372.670776367188	1536.714599609375	-372.8313598632809	1293.530883789062	1341.790161132812	-307.2677001953122	1300.78857421875	1342.00048828125	-447.1530456542966	1549.490112304688	1372.587768554688	-366.7567749023435	1442.434814453125	1488.353393554688	-198.4015045166012	1394.393798828125	1330.892944335938	-107.1743698120114	1453.906494140625	1244.119873046875	-99.87586975097629	1332.57275390625	1249.204345703125	-97.143013000488	1379.558959960938	1141.11279296875	-85.09454345703099	1357.27880859375	1136.835205078125	-166.6581726074216	1486.149291992188	961.663330078125	-83.41164398193338	1530.187377929688	899.9893188476562	-120.2820968627928	1460.666015625	870.6656494140625	-89.43250274658183	1534.570068359375	811.7137451171875	-65.49436950683575	1455.459838867188	1489.60400390625	-536.6305541992184	1441.430419921875	1321.7998046875	-631.9046630859372	1506.179931640625	1243.312622070313	-625.0744628906248	1387.393310546875	1242.318359375	-660.8787841796873	1449.195678710938	1139.922485351563	-661.7429199218748	1393.291381835938	1131.852905273438	-608.2331542968748	1568.902465820312	976.7354736328126	-623.9973144531248	1600.36083984375	922.0870971679689	-566.2237548828123	1564.778564453125	891.9619750976564	-629.643859863281	1645.72265625	846.2059936523439	-606.076232910156	1447.491821289062	1090.143676757812	-193.5334320068357	1316.063720703125	1061.6640625	-359.6093749999998	1436.0966796875	1078.777587890625	-537.8754882812498	1412.354614257812	938.1492919921875	-171.9953460693357	1525.2021484375	668.1790161132812	-191.0611724853514	1576.35546875	697.2183837890625	-189.8410797119139	1603.938598632812	597.8516235351562	-221.5227050781249	1540.03955078125	588.9752807617188	-211.1065368652342	1510.612670898438	380.7907409667969	-198.7904205322265	1561.384155273438	350.9938049316407	-213.2115020751952	1543.337890625	267.2180175781251	-226.2786254882812	1482.112060546875	283.9454345703126	-214.4881896972656	1412.22509765625	73.54809570312507	-289.0612487792969	1569.169189453125	36.1424942016602	-201.6759948730469	1624.17236328125	46.11800384521491	-288.5196838378906	1393.470336914062	966.4975585937501	-538.4008178710935	1446.435424804688	672.0118408203126	-513.9635620117186	1396.101928710938	699.2704467773439	-529.1030883789061	1369.03955078125	600.3884887695314	-492.0463562011718	1432.964965820312	595.7448120117189	-486.647247314453	1353.076293945312	332.9366760253907	-467.9308471679687	1293.557861328125	321.146942138672	-467.5515441894531	1278.214599609375	236.7472381591798	-447.3327331542968	1342.339477539062	233.6962890625001	-441.6459045410156	1215.281372070312	58.99243927001961	-367.4259033203125	1386.44677734375	19.53470993042002	-442.3814697265625	1425.4375	29.11908340454109	-337.6937866210938	
239	0.9520000000000001	1580.665283203125	1751.466186523438	-353.7663269042965	1517.825561523438	1695.657836914062	-283.2992553710934	1522.604614257812	1710.5283203125	-429.2319641113277	1377.784545898438	1536.252563476562	-373.3086242675778	1297.943481445312	1340.947265625	-307.6842956542966	1306.049438476562	1341.68896484375	-447.085510253906	1554.788208007812	1372.030639648438	-366.6393432617185	1447.6787109375	1487.729248046875	-198.3317718505856	1400.204345703125	1330.347412109375	-106.5979080200192	1458.828979492188	1243.489379882812	-99.93032073974582	1337.3779296875	1248.607543945312	-97.42758178710909	1384.421752929688	1140.324584960938	-85.40526580810521	1362.544555664062	1136.192504882812	-166.9626007080076	1491.130249023438	961.277587890625	-83.3845977783201	1535.539428710938	899.5415649414062	-120.0582046508787	1465.887939453125	870.1204223632812	-89.75991821289043	1539.6943359375	811.4569091796875	-65.13866424560528	1461.06982421875	1489.19384765625	-536.5693359374997	1447.727416992188	1321.885375976563	-632.1594238281247	1512.252075195312	1243.123168945313	-625.0402832031248	1393.565551757812	1242.0380859375	-661.2752685546873	1455.494873046875	1139.603271484375	-662.0861206054685	1399.507934570312	1131.46923828125	-608.748107910156	1575.721069335938	976.8786621093751	-623.9425048828123	1607.084228515625	922.4637451171876	-565.9329833984373	1572.08251953125	892.6215209960939	-630.1195678710935	1653.013916015625	846.7421875000001	-605.4335937499998	1452.7236328125	1089.63427734375	-193.6510009765622	1321.352905273438	1061.258666992188	-359.765930175781	1441.34033203125	1078.372314453125	-538.1386718749998	1417.874389648438	937.9150390625	-172.3824157714842	1531.013549804688	667.6439208984375	-192.0628051757811	1582.095092773438	697.1425170898438	-190.3812103271483	1610.055786132812	597.8488159179688	-222.263229370117	1546.023193359375	588.7513427734375	-211.9232635498045	1520.448852539062	379.4701232910157	-199.8655853271484	1571.58984375	350.5194091796876	-214.3200225830077	1555.444702148438	266.6341552734376	-227.1284790039062	1493.899536132812	281.8551635742188	-215.5618591308593	1428.728881835938	70.31510162353523	-290.092529296875	1586.490966796875	35.82559585571293	-202.5664825439453	1641.297607421875	46.807601928711	-289.5570068359375	1398.481079101562	966.3399658203126	-538.5728759765623	1448.571899414062	671.8242797851564	-514.3117675781249	1398.123657226562	699.1951293945314	-528.4249267578124	1370.875854492188	600.6832885742189	-491.8840026855468	1434.779296875	595.7645263671876	-487.2865905761718	1353.445922851562	333.1961975097657	-468.0411071777343	1293.879516601562	321.601043701172	-467.5328979492187	1278.57568359375	237.504364013672	-447.1264343261718	1342.638305664062	234.0609130859376	-441.8497009277343	1215.403442382812	59.79542922973641	-367.1559143066406	1386.136840820312	19.55827903747569	-442.41943359375	1425.930419921875	28.93315887451179	-338.031494140625	
